# xmcd
#
# Track frame offsets: 
#        150
#        26995
#        43044
#        65877
#        81540
#        102537
#        121795
#        138920
#        163795
#        180445
#        202077
#        231595
#        259270
#        277921
#        307120
#        328157
#        343345
#
# Disc length: 4762 seconds
#
# Revision: 0
# Processed by: cddbd v1.4PL0 Copyright (c) Steve Scherf et al.
# Submitted via: ExactAudioCopy v0.95a3
#
DISCID=13129811
DTITLE=Peter Green Splinter Group - theBest
DYEAR=1900
DGENRE=Blues
TTITLE0=Bulgar
TTITLE1=I'm A SteadyRollin Man
TTITLE2=Big Change Is Gonna Come
TTITLE3=Phonograph Blues
TTITLE4=Help Me
TTITLE5=Sweet Home Chicago
TTITLE6=Hitch Hiking Woman
TTITLE7=Tribal Dance
TTITLE8=Homework
TTITLE9=Love In Vain Blues
TTITLE10=You'll Be Sorry Someday
TTITLE11=Look On Younder Wall
TTITLE12=Traveling Riverside Blues
TTITLE13=Going Down
TTITLE14=Hiding In Shadows
TTITLE15=Albatros
TTITLE16=Man Of The World
EXTD=
EXTT0=
EXTT1=
EXTT2=
EXTT3=
EXTT4=
EXTT5=
EXTT6=
EXTT7=
EXTT8=
EXTT9=
EXTT10=
EXTT11=
EXTT12=
EXTT13=
EXTT14=
EXTT15=
EXTT16=
PLAYORDER=
